HIERARCHY
ROOT Hips
{
	OFFSET 0.000000 88.474243 0.000000
	CHANNELS 6 Xposition Yposition Zposition Zrotation Yrotation Xrotation 
	JOINT Hips_Spine
	{
		OFFSET 0.000000 0.000000 0.000000
		CHANNELS 3 Zrotation Yrotation Xrotation
		JOINT Spine
		{
			OFFSET 0.005100 8.711998 -0.691000
			CHANNELS 3 Zrotation Yrotation Xrotation
			JOINT Spine1
			{
				OFFSET -0.009200 8.660301 -1.275000
				CHANNELS 3 Zrotation Yrotation Xrotation
				JOINT Spine2
				{
					OFFSET 0.006300 9.852501 -1.857000
					CHANNELS 3 Zrotation Yrotation Xrotation
					JOINT Spine2_Neck
					{
						OFFSET 0.000000 0.000000 0.000000
						CHANNELS 3 Zrotation Yrotation Xrotation
						JOINT Neck
						{
							OFFSET 0.016300 11.420799 -0.263300
							CHANNELS 3 Zrotation Yrotation Xrotation
							End Site #name: Head
							{
								OFFSET -0.019200 9.262405 2.362500
							}
						}
					}
					JOINT Spine2_LeftShoulder
					{
						OFFSET 0.000000 0.000000 0.000000
						CHANNELS 3 Zrotation Yrotation Xrotation
						JOINT LeftShoulder
						{
							OFFSET 5.616900 6.732201 -0.345700
							CHANNELS 3 Zrotation Yrotation Xrotation
							JOINT LeftArm
							{
								OFFSET 10.664888 -0.183372 -2.440700
								CHANNELS 3 Zrotation Yrotation Xrotation
								JOINT LeftForeArm
								{
									OFFSET 27.459126 0.000000 0.000000
									CHANNELS 3 Zrotation Yrotation Xrotation
									End Site #name: LeftHand
									{
										OFFSET 21.306858 0.000000 0.000000
									}
								}
							}
						}
					}
					JOINT Spine2_RightShoulder
					{
						OFFSET 0.000000 0.000000 0.000000
						CHANNELS 3 Zrotation Yrotation Xrotation
						JOINT RightShoulder
						{
							OFFSET -5.580300 6.737503 -0.344400
							CHANNELS 3 Zrotation Yrotation Xrotation
							JOINT RightArm
							{
								OFFSET -10.679335 -0.188484 -2.383900
								CHANNELS 3 Zrotation Yrotation Xrotation
								JOINT RightForeArm
								{
									OFFSET -27.503529 0.000000 0.000000
									CHANNELS 3 Zrotation Yrotation Xrotation
									End Site #name: RightHand
									{
										OFFSET -21.306808 0.000000 0.000000
									}
								}
							}
						}
					}
				}
			}
		}
	}
	JOINT Hips_LeftUpLeg
	{
		OFFSET 0.000000 0.000000 0.000000
		CHANNELS 3 Zrotation Yrotation Xrotation
		JOINT LeftUpLeg
		{
			OFFSET 6.857700 -6.739601 0.312100
			CHANNELS 3 Zrotation Yrotation Xrotation
			JOINT LeftLeg
			{
				OFFSET -0.367590 -34.731552 -4.572400
				CHANNELS 3 Zrotation Yrotation Xrotation
				End Site #name: LeftFoot
				{
					OFFSET 0.367590 -34.656704 -6.067400
				}
			}
		}
	}
	JOINT Hips_RightUpLeg
	{
		OFFSET 0.000000 0.000000 0.000000
		CHANNELS 3 Zrotation Yrotation Xrotation
		JOINT RightUpLeg
		{
			OFFSET -6.876100 -6.733299 0.301000
			CHANNELS 3 Zrotation Yrotation Xrotation
			JOINT RightLeg
			{
				OFFSET 0.347353 -34.795158 -4.515900
				CHANNELS 3 Zrotation Yrotation Xrotation
				End Site #name: RightFoot
				{
					OFFSET -0.347353 -34.589367 -6.070300
				}
			}
		}
	}
}
MOTION
Frames: 9
Frame Time: 0.041667
-0.305931 0.277409 -1.399499 -4.121131 0.922039 -2.148708 0.000000 -0.000000 0.000000 2.631716 0.982910 19.890022 0.121959 0.474595 3.681143 0.000000 0.000000 0.000000 0.425130 0.345917 2.672462 1.223763 -0.379757 8.981235 0.528507 0.468283 3.331109 -3.297566 4.308552 -1.419929 -65.506960 0.707772 9.929842 -0.021547 -47.112068 0.967359 0.162259 0.647754 3.559331 4.885067 -5.473372 0.250072 71.494379 9.385973 8.120459 0.491527 82.928507 0.403073 -0.000000 -0.000000 -0.000000 7.262374 10.626611 -59.521135 6.908647 -2.832145 55.834111 0.000000 -0.000000 0.000000 -5.080796 -7.263485 -50.365947 0.826757 -1.021479 57.334228 
-0.314568 0.284984 -1.439011 -4.106738 0.908331 -2.144969 0.000000 -0.000000 0.000000 2.632669 0.988944 19.881925 0.126779 0.474111 3.687268 0.000000 0.000000 0.000000 0.431977 0.343763 2.683494 1.229224 -0.382203 8.966803 0.536743 0.466957 3.339256 -3.292537 4.259806 -1.414947 -65.514723 0.646877 9.815915 -0.015114 -46.509205 0.959023 0.166632 0.648325 3.571831 4.924660 -5.488394 0.242779 71.624244 9.582426 8.201341 0.424865 81.656721 0.340585 -0.000000 -0.000000 -0.000000 7.263582 10.626094 -59.523580 6.912826 -2.835103 55.831472 0.000000 -0.000000 0.000000 -5.074310 -7.267804 -50.358881 0.824794 -1.024579 57.327393 
-0.322205 0.292103 -1.478380 -4.095469 0.895387 -2.141431 0.000000 -0.000000 0.000000 2.632589 0.995729 19.860724 0.133001 0.473815 3.694478 0.000000 0.000000 0.000000 0.440699 0.341705 2.694972 1.233192 -0.382814 8.947102 0.545208 0.465434 3.348047 -3.296863 4.193366 -1.406299 -65.510152 0.586711 9.689986 -0.007492 -45.787577 0.950103 0.172064 0.649978 3.585789 4.973709 -5.502969 0.234079 71.781795 9.816720 8.337741 0.370198 80.083165 0.290696 -0.000000 -0.000000 -0.000000 7.265087 10.625635 -59.517314 6.917833 -2.834966 55.815776 0.000000 -0.000000 0.000000 -5.068477 -7.270394 -50.348020 0.823619 -1.026753 57.319254 
-0.328765 0.298794 -1.517601 -4.084505 0.881691 -2.139010 0.000000 -0.000000 0.000000 2.631459 1.005781 19.838440 0.139702 0.473389 3.700420 0.000000 0.000000 0.000000 0.450691 0.339998 2.707640 1.237730 -0.382531 8.922880 0.556137 0.464129 3.356270 -3.303279 4.112876 -1.394665 -65.500712 0.515593 9.561459 0.001392 -44.963615 0.938639 0.179339 0.652102 3.601636 5.066669 -5.512825 0.227786 71.999991 10.055993 8.609093 0.324551 78.208785 0.251119 -0.000000 -0.000000 -0.000000 7.267989 10.629476 -59.507973 6.924563 -2.833076 55.801192 0.000000 -0.000000 0.000000 -5.062385 -7.271871 -50.340473 0.821254 -1.030211 57.310187 
-0.334195 0.305140 -1.556739 -4.075896 0.867815 -2.138044 0.000000 -0.000000 0.000000 2.633785 1.016205 19.808943 0.148084 0.473490 3.707318 0.000000 0.000000 0.000000 0.462632 0.338536 2.721235 1.240858 -0.380631 8.894743 0.568199 0.463892 3.366143 -3.314848 4.020889 -1.381156 -65.490322 0.436947 9.398055 0.009795 -43.996955 0.927653 0.187939 0.655085 3.618479 5.185818 -5.518734 0.222252 72.245879 10.335302 8.936677 0.281789 75.546488 0.211989 -0.000000 -0.000000 -0.000000 7.269761 10.635207 -59.491897 6.932153 -2.831592 55.780189 0.000000 -0.000000 0.000000 -5.057068 -7.273393 -50.330907 0.820695 -1.033122 57.298862 
-0.338498 0.311216 -1.595742 -4.069632 0.856169 -2.136502 0.000000 -0.000000 0.000000 2.635566 1.030221 19.774445 0.157280 0.473265 3.715513 0.000000 0.000000 0.000000 0.476157 0.337446 2.737065 1.243427 -0.378375 8.861770 0.582583 0.463800 3.379345 -3.332050 3.912598 -1.363762 -65.475632 0.352460 9.228512 0.021558 -42.926661 0.914630 0.198024 0.658333 3.638412 5.315928 -5.526305 0.216344 72.529271 10.664377 9.323419 0.247002 72.466245 0.181819 -0.000000 -0.000000 -0.000000 7.272703 10.642409 -59.473441 6.939725 -2.827716 55.753344 0.000000 -0.000000 0.000000 -5.054289 -7.273404 -50.317389 0.822427 -1.035451 57.287904 
-0.341646 0.317004 -1.634572 -4.064551 0.844909 -2.133019 0.000000 -0.000000 0.000000 2.638392 1.045371 19.733554 0.167669 0.473032 3.723862 0.000000 0.000000 0.000000 0.490775 0.336780 2.753433 1.243605 -0.373285 8.822368 0.598490 0.464068 3.389784 -3.354234 3.787751 -1.344556 -65.454974 0.263040 9.045568 0.030507 -41.809933 0.902654 0.209345 0.662002 3.656708 5.461312 -5.529982 0.209100 72.856570 11.025310 9.755759 0.220479 69.005140 0.158505 -0.000000 -0.000000 -0.000000 7.274441 10.648336 -59.463313 6.948441 -2.823649 55.738950 0.000000 -0.000000 0.000000 -5.049020 -7.273495 -50.302184 0.822014 -1.038516 57.269993 
-0.343615 0.322498 -1.673316 -4.060868 0.834497 -2.128184 0.000000 -0.000000 0.000000 2.642810 1.064561 19.696867 0.178740 0.473554 3.732258 0.000000 0.000000 0.000000 0.506590 0.336689 2.770259 1.244422 -0.363967 8.778002 0.615279 0.465074 3.401065 -3.377758 3.655863 -1.322539 -65.428135 0.174744 8.863926 0.041140 -40.635729 0.889366 0.221075 0.665133 3.673969 5.613903 -5.550599 0.202461 73.198294 11.421671 10.310642 0.198312 65.400360 0.140960 -0.000000 -0.000000 -0.000000 7.276695 10.658055 -59.453399 6.957389 -2.816935 55.723957 0.000000 -0.000000 0.000000 -5.045741 -7.272192 -50.281096 0.822377 -1.040706 57.245518 
-0.344396 0.327823 -1.711960 -4.058424 0.823645 -2.122526 0.000000 -0.000000 0.000000 2.649625 1.088898 19.661821 0.190582 0.474065 3.740879 0.000000 0.000000 0.000000 0.523327 0.337209 2.788462 1.243757 -0.351295 8.728144 0.633219 0.467026 3.414303 -3.406428 3.510064 -1.297397 -65.398350 0.082388 8.665137 0.050950 -39.408457 0.876414 0.232797 0.669598 3.692995 5.782982 -5.572656 0.197658 73.535552 11.834205 11.006961 0.175326 62.034070 0.123229 -0.000000 -0.000000 -0.000000 7.278504 10.666617 -59.437319 6.965107 -2.812326 55.701518 0.000000 -0.000000 0.000000 -5.042398 -7.268881 -50.262254 0.822924 -1.041608 57.220110 
